<?xml version="1.0" standalone="no"?>
<!DOCTYPE svg PUBLIC "-//W3C//DTD SVG 20010904//EN"
 "http://www.w3.org/TR/2001/REC-SVG-20010904/DTD/svg10.dtd">
<svg version="1.0" xmlns="http://www.w3.org/2000/svg"
 width="512.000000pt" height="512.000000pt" viewBox="0 0 512.000000 512.000000"
 preserveAspectRatio="xMidYMid meet">
<metadata>
Created by potrace 1.14, written by Peter Selinger 2001-2017
</metadata>
<g transform="translate(0.000000,512.000000) scale(0.100000,-0.100000)"
fill="#000000" stroke="none">
<path d="M2450 4913 c-83 -28 -138 -73 -173 -138 -21 -38 -22 -52 -22 -325 l0
-285 29 -48 c15 -26 44 -61 65 -77 65 -54 104 -60 423 -60 l288 0 0 -145 0
-145 -510 0 -510 0 0 308 c0 169 -4 312 -8 318 -4 6 -17 17 -30 23 -21 11 -31
8 -83 -23 l-60 -36 -42 28 c-68 46 -74 46 -139 7 l-58 -36 -42 29 c-69 46 -75
46 -140 7 l-58 -36 -42 29 c-69 46 -75 46 -140 7 l-58 -36 -47 32 c-25 18 -59
32 -75 32 -56 0 -57 -9 -58 -345 l0 -308 -27 -1 c-128 -3 -248 -84 -310 -209
l-28 -55 -3 -487 -3 -487 -110 -383 c-61 -211 -112 -390 -114 -398 -2 -8 -20
-71 -40 -140 -20 -69 -44 -150 -52 -180 -8 -30 -28 -100 -45 -155 -80 -268
-78 -256 -77 -440 1 -140 5 -181 21 -235 49 -156 171 -273 331 -316 44 -12
372 -14 2049 -14 1430 0 2012 3 2050 11 134 28 253 121 314 244 46 93 49 114
49 325 0 136 -4 187 -17 230 -9 30 -98 325 -197 655 -99 330 -193 636 -208
680 l-28 80 -5 505 -5 505 -28 55 c-49 97 -116 157 -211 190 -32 11 -61 19
-64 19 -4 -1 -127 -1 -274 0 l-268 1 0 145 0 145 288 0 c341 0 368 5 441 78
78 79 81 95 78 406 -2 256 -3 273 -24 311 -25 47 -74 95 -123 121 -33 18 -79
19 -945 21 -500 1 -917 -1 -925 -4z m1809 -131 c19 -9 44 -30 55 -45 20 -27
21 -44 24 -281 3 -249 3 -252 -20 -286 -50 -74 9 -70 -969 -70 l-876 0 -34 23
c-65 43 -69 64 -69 327 0 263 4 284 69 327 l34 23 876 0 c814 0 878 -1 910
-18z m-2946 -602 c56 -38 80 -38 137 0 25 16 49 30 53 30 5 0 28 -13 52 -30
55 -38 76 -38 137 1 l49 32 50 -32 c53 -33 78 -38 110 -21 19 11 19 2 19 -477
1 -399 4 -495 15 -528 8 -22 15 -41 15 -42 0 -2 -180 -3 -400 -3 -421 0 -447
3 -464 45 -10 27 -7 1015 3 1015 6 0 13 -4 16 -10 12 -19 60 -10 105 20 25 16
48 30 52 30 4 0 27 -13 51 -30z m2227 -345 l0 -145 -180 0 -180 0 0 145 0 145
180 0 180 0 0 -145z m-2580 -469 c0 -113 4 -216 10 -230 9 -25 8 -26 -30 -26
-27 0 -47 -7 -60 -20 -18 -18 -20 -33 -20 -152 0 -108 3 -135 17 -150 15 -17
51 -18 730 -18 700 0 713 0 733 20 18 18 20 33 20 150 0 168 -2 170 -131 170
-175 0 -189 20 -189 279 l0 181 1073 0 c1193 0 1129 4 1202 -67 74 -72 73 -65
74 -560 l1 -443 -1255 0 c-1242 0 -1255 0 -1275 -20 -25 -25 -25 -55 0 -80 20
-20 33 -20 1134 -20 l1113 0 127 -422 c70 -233 129 -430 131 -438 24 -86 151
-508 161 -533 6 -16 -118 -17 -1840 -17 -1015 0 -1846 3 -1846 6 0 25 134 460
145 471 8 8 23 44 34 81 94 320 131 460 127 478 -7 27 17 108 38 129 20 20 39
92 32 119 -3 12 2 45 11 74 l17 52 138 0 c125 0 140 2 158 20 25 25 25 55 0
80 -19 19 -33 20 -425 20 l-405 0 0 433 c0 488 1 496 71 566 41 40 102 69 152
70 l27 1 0 -204z m1280 -426 l0 -50 -630 0 -630 0 0 50 0 50 630 0 630 0 0
-50z m-1381 -592 c-5 -18 -54 -190 -109 -383 -55 -192 -142 -495 -192 -673
l-92 -322 -89 0 c-87 0 -88 0 -81 23 4 12 35 121 70 242 34 121 122 428 195
683 l133 462 87 0 87 0 -9 -32z m3754 -658 c114 -379 210 -696 213 -705 5 -13
-7 -15 -83 -15 l-90 0 -37 128 c-20 70 -50 170 -66 222 -71 232 -102 335 -105
349 -2 9 -40 138 -85 286 -45 149 -92 305 -105 348 l-23 77 87 0 87 0 207
-690z m236 -967 c-1 -101 -6 -139 -22 -185 -28 -78 -100 -158 -175 -195 -57
-28 -58 -28 -289 -31 l-233 -3 0 155 c0 143 -2 158 -20 176 -20 20 -33 20
-1550 20 -1517 0 -1530 0 -1550 -20 -18 -18 -20 -33 -20 -175 l0 -155 -138 0
c-137 0 -140 0 -178 28 -22 16 -56 54 -77 84 -58 83 -75 150 -76 301 l-2 127
2166 0 2166 0 -2 -127z m-839 -298 l0 -115 -1450 0 -1450 0 0 115 0 115 1450
0 1450 0 0 -115z"/>
<path d="M2560 4640 c-18 -18 -20 -33 -20 -185 0 -152 2 -167 20 -185 20 -20
33 -20 800 -20 767 0 780 0 800 20 18 18 20 33 20 185 0 152 -2 167 -20 185
-20 20 -33 20 -800 20 -767 0 -780 0 -800 -20z m1500 -185 l0 -85 -700 0 -700
0 0 85 0 85 700 0 700 0 0 -85z"/>
<path d="M1192 3914 c-14 -10 -22 -26 -22 -44 0 -38 32 -60 87 -60 30 0 49 6
63 20 44 44 9 100 -63 100 -23 0 -53 -7 -65 -16z"/>
<path d="M1421 3909 c-10 -11 -18 -32 -16 -45 5 -48 26 -53 213 -54 159 0 174
2 192 20 24 24 25 48 4 78 -15 21 -20 22 -194 22 -169 0 -180 -1 -199 -21z"/>
<path d="M1187 3672 c-24 -26 -21 -68 5 -86 33 -23 103 -21 128 4 46 46 9 100
-68 100 -35 0 -54 -5 -65 -18z"/>
<path d="M1418 3668 c-21 -26 -16 -67 9 -85 12 -9 67 -13 190 -13 160 0 175 2
193 20 28 28 26 64 -5 84 -20 13 -55 16 -197 16 -166 0 -174 -1 -190 -22z"/>
<path d="M1192 3444 c-27 -19 -29 -64 -4 -87 27 -25 106 -23 132 3 44 44 9
100 -63 100 -23 0 -53 -7 -65 -16z"/>
<path d="M1425 3446 c-11 -8 -18 -26 -18 -46 0 -55 16 -60 210 -60 160 0 175
2 193 20 11 11 20 29 20 40 0 11 -9 29 -20 40 -18 18 -33 20 -193 20 -130 0
-178 -3 -192 -14z"/>
<path d="M2740 3300 c-19 -19 -20 -33 -20 -260 0 -227 1 -241 20 -260 20 -20
33 -20 620 -20 587 0 600 0 620 20 19 19 20 33 20 260 0 227 -1 241 -20 260
-20 20 -33 20 -620 20 -587 0 -600 0 -620 -20z m1140 -260 l0 -160 -520 0
-520 0 0 160 0 160 520 0 520 0 0 -160z"/>
<path d="M1252 2064 c-14 -10 -22 -26 -22 -44 0 -55 21 -60 252 -60 195 0 209
1 228 20 11 11 20 29 20 40 0 11 -9 29 -20 40 -19 19 -33 20 -228 20 -172 0
-211 -3 -230 -16z"/>
<path d="M1971 2061 c-23 -23 -20 -69 6 -88 12 -10 73 -13 223 -13 228 0 250
5 250 59 0 57 -15 61 -248 61 -197 0 -213 -1 -231 -19z"/>
<path d="M2687 2062 c-24 -26 -21 -68 5 -86 19 -13 58 -16 228 -16 222 0 233
3 245 52 5 19 1 32 -14 47 -20 20 -31 21 -234 21 -195 0 -215 -2 -230 -18z"/>
<path d="M3410 2060 c-11 -11 -20 -29 -20 -40 0 -11 9 -29 20 -40 19 -19 33
-20 228 -20 231 0 252 5 252 60 0 55 -21 60 -252 60 -195 0 -209 -1 -228 -20z"/>
<path d="M1252 1724 c-14 -10 -22 -26 -22 -44 0 -55 21 -60 252 -60 195 0 209
1 228 20 11 11 20 29 20 40 0 11 -9 29 -20 40 -19 19 -33 20 -228 20 -172 0
-211 -3 -230 -16z"/>
<path d="M1977 1728 c-27 -22 -31 -60 -7 -86 20 -21 26 -22 234 -22 194 0 214
2 229 18 24 26 21 68 -5 86 -19 13 -58 16 -228 16 -150 0 -211 -3 -223 -12z"/>
<path d="M2687 1722 c-24 -26 -21 -68 5 -86 19 -13 58 -16 230 -16 193 0 209
1 227 19 23 23 20 69 -6 89 -12 9 -75 12 -228 12 -193 0 -213 -2 -228 -18z"/>
<path d="M3410 1720 c-11 -11 -20 -29 -20 -40 0 -11 9 -29 20 -40 19 -19 33
-20 230 -20 197 0 211 1 230 20 27 27 26 65 -2 84 -19 13 -58 16 -230 16 -195
0 -209 -1 -228 -20z"/>
<path d="M1252 1384 c-14 -10 -22 -26 -22 -44 0 -55 21 -60 257 -60 l213 0 15
24 c19 29 11 72 -15 86 -11 6 -109 10 -222 10 -168 0 -207 -3 -226 -16z"/>
<path d="M1977 1388 c-28 -22 -32 -63 -8 -87 20 -20 31 -21 234 -21 195 0 215
2 230 18 22 24 21 65 -1 85 -16 15 -47 17 -228 17 -153 0 -215 -3 -227 -12z"/>
<path d="M2692 1384 c-27 -19 -29 -64 -4 -87 16 -15 47 -17 230 -17 197 0 213
1 231 19 23 23 20 69 -6 89 -12 9 -73 12 -223 12 -170 0 -209 -3 -228 -16z"/>
<path d="M3410 1380 c-11 -11 -20 -29 -20 -40 0 -11 9 -29 20 -40 19 -19 33
-20 230 -20 197 0 211 1 230 20 27 27 26 65 -2 84 -19 13 -58 16 -230 16 -195
0 -209 -1 -228 -20z"/>
</g>
</svg>
